<svg xmlns="http://www.w3.org/2000/svg" xmlns:xlink="http://www.w3.org/1999/xlink" width="100" zoomAndPan="magnify" viewBox="0 0 75 74.999997" height="100" preserveAspectRatio="xMidYMid meet" version="1.0"><path fill="#fe3b2c" d="M 74.96875 39.976562 C 73.675781 58.464844 58.699219 73.441406 40.214844 74.734375 C 18.3125 76.261719 0 58.878906 0 37.296875 C 0 34.46875 0.316406 31.644531 0.941406 28.914062 C 0.976562 28.75 1.101562 28.617188 1.265625 28.570312 C 1.425781 28.523438 1.601562 28.570312 1.71875 28.6875 L 14.910156 41.882812 C 15.082031 42.054688 15.363281 42.054688 15.535156 41.882812 L 27.5 29.917969 C 27.683594 29.738281 27.976562 29.738281 28.15625 29.917969 L 47.710938 49.472656 C 47.894531 49.652344 47.894531 49.945312 47.710938 50.128906 L 43.882812 53.957031 C 43.601562 54.238281 43.804688 54.714844 44.199219 54.707031 L 58.621094 54.488281 C 58.859375 54.484375 59.050781 54.292969 59.054688 54.054688 L 59.273438 39.632812 C 59.28125 39.238281 58.800781 39.035156 58.523438 39.316406 L 54.960938 42.878906 C 54.78125 43.058594 54.484375 43.058594 54.304688 42.878906 L 28.140625 16.714844 C 27.96875 16.542969 27.6875 16.542969 27.519531 16.714844 L 15.550781 28.683594 C 15.367188 28.863281 15.074219 28.863281 14.894531 28.683594 L 5.171875 18.960938 C 5.023438 18.8125 4.992188 18.582031 5.097656 18.402344 C 11.808594 6.90625 24.234375 -0.234375 37.53125 -0.234375 C 59.113281 -0.234375 76.496094 18.074219 74.96875 39.976562 " fill-opacity="1" fill-rule="nonzero"/></svg>