<svg xmlns="http://www.w3.org/2000/svg" xmlns:xlink="http://www.w3.org/1999/xlink" width="100" zoomAndPan="magnify" viewBox="0 0 75 74.999997" height="100" preserveAspectRatio="xMidYMid meet" version="1.0"><path fill="#21cb87" d="M 74.96875 35.019531 C 73.675781 16.535156 58.699219 1.558594 40.214844 0.265625 C 18.3125 -1.265625 0 16.121094 0 37.703125 C 0 40.53125 0.316406 43.351562 0.941406 46.085938 C 0.976562 46.25 1.101562 46.378906 1.265625 46.425781 C 1.425781 46.472656 1.601562 46.429688 1.71875 46.308594 L 14.910156 33.113281 C 15.082031 32.941406 15.363281 32.941406 15.535156 33.113281 L 27.5 45.082031 C 27.683594 45.261719 27.976562 45.261719 28.15625 45.082031 L 47.710938 25.527344 C 47.894531 25.34375 47.894531 25.050781 47.710938 24.871094 L 43.882812 21.042969 C 43.601562 20.761719 43.804688 20.285156 44.199219 20.289062 L 58.621094 20.511719 C 58.859375 20.515625 59.050781 20.707031 59.054688 20.945312 L 59.273438 35.363281 C 59.28125 35.757812 58.800781 35.960938 58.523438 35.679688 L 54.960938 32.121094 C 54.78125 31.9375 54.484375 31.9375 54.304688 32.121094 L 28.140625 58.285156 C 27.96875 58.457031 27.6875 58.457031 27.519531 58.285156 L 15.550781 46.316406 C 15.367188 46.136719 15.074219 46.136719 14.894531 46.316406 L 5.171875 56.039062 C 5.023438 56.183594 4.992188 56.417969 5.097656 56.597656 C 11.808594 68.09375 24.234375 75.234375 37.53125 75.234375 C 59.113281 75.234375 76.496094 56.921875 74.96875 35.019531 " fill-opacity="1" fill-rule="nonzero"/></svg>